# Blender 4.0.2
# www.blender.org
mtllib test.mtl
o Cube
v -0.015715 0.000000 0.041812
v -0.019971 0.000000 0.036777
v -0.016381 0.000000 0.041750
v -0.017030 0.000000 0.041566
v -0.017647 0.000000 0.041263
v -0.018217 0.000000 0.040850
v -0.018724 0.000000 0.040337
v -0.019158 0.000000 0.039737
v -0.019507 0.000000 0.039063
v -0.019762 0.000000 0.038333
v -0.019918 0.000000 0.037565
v -0.019514 0.002500 0.036756
v -0.015697 0.002500 0.041272
v -0.019466 0.002500 0.037480
v -0.019327 0.002500 0.038166
v -0.019099 0.002500 0.038817
v -0.018787 0.002500 0.039418
v -0.018400 0.002500 0.039954
v -0.017947 0.002500 0.040412
v -0.017439 0.002500 0.040780
v -0.016889 0.002500 0.041050
v -0.016309 0.002500 0.041215
v -0.019971 0.000000 -0.036777
v -0.015715 0.000000 -0.041812
v -0.019918 0.000000 -0.037565
v -0.019762 0.000000 -0.038333
v -0.019507 0.000000 -0.039063
v -0.019158 0.000000 -0.039737
v -0.018724 0.000000 -0.040337
v -0.018217 0.000000 -0.040850
v -0.017647 0.000000 -0.041263
v -0.017030 0.000000 -0.041566
v -0.016381 0.000000 -0.041750
v -0.015697 0.002500 -0.041272
v -0.019514 0.002500 -0.036756
v -0.016309 0.002500 -0.041215
v -0.016889 0.002500 -0.041050
v -0.017439 0.002500 -0.040780
v -0.017947 0.002500 -0.040412
v -0.018400 0.002500 -0.039954
v -0.018787 0.002500 -0.039418
v -0.019099 0.002500 -0.038817
v -0.019327 0.002500 -0.038166
v -0.019466 0.002500 -0.037480
v 0.019971 0.000000 0.036777
v 0.015715 0.000000 0.041812
v 0.019918 0.000000 0.037565
v 0.019762 0.000000 0.038333
v 0.019507 0.000000 0.039063
v 0.019158 0.000000 0.039737
v 0.018724 0.000000 0.040337
v 0.018217 0.000000 0.040850
v 0.017647 0.000000 0.041263
v 0.017030 0.000000 0.041566
v 0.016381 0.000000 0.041750
v 0.015697 0.002500 0.041272
v 0.019514 0.002500 0.036756
v 0.016309 0.002500 0.041215
v 0.016889 0.002500 0.041050
v 0.017439 0.002500 0.040780
v 0.017947 0.002500 0.040412
v 0.018400 0.002500 0.039954
v 0.018787 0.002500 0.039418
v 0.019099 0.002500 0.038817
v 0.019327 0.002500 0.038166
v 0.019466 0.002500 0.037480
v 0.015715 0.000000 -0.041812
v 0.019971 0.000000 -0.036777
v 0.016381 0.000000 -0.041750
v 0.017030 0.000000 -0.041566
v 0.017647 0.000000 -0.041263
v 0.018217 0.000000 -0.040850
v 0.018724 0.000000 -0.040337
v 0.019158 0.000000 -0.039737
v 0.019507 0.000000 -0.039063
v 0.019762 0.000000 -0.038333
v 0.019918 0.000000 -0.037565
v 0.019514 0.002500 -0.036756
v 0.015697 0.002500 -0.041272
v 0.019466 0.002500 -0.037480
v 0.019327 0.002500 -0.038166
v 0.019099 0.002500 -0.038817
v 0.018787 0.002500 -0.039418
v 0.018400 0.002500 -0.039954
v 0.017947 0.002500 -0.040412
v 0.017439 0.002500 -0.040780
v 0.016889 0.002500 -0.041050
v 0.016309 0.002500 -0.041215
v -0.015715 0.002500 0.041812
v -0.016381 0.002500 0.041750
v -0.017030 0.002500 0.041566
v -0.017647 0.002500 0.041263
v -0.018217 0.002500 0.040850
v -0.018724 0.002500 0.040337
v -0.019158 0.002500 0.039737
v -0.019507 0.002500 0.039063
v -0.019762 0.002500 0.038333
v -0.019918 0.002500 0.037565
v -0.019971 0.002500 0.036777
v -0.016381 0.002500 -0.041750
v -0.015715 0.002500 -0.041812
v -0.017030 0.002500 -0.041566
v -0.017647 0.002500 -0.041263
v -0.018217 0.002500 -0.040850
v -0.018724 0.002500 -0.040337
v -0.019158 0.002500 -0.039737
v -0.019507 0.002500 -0.039063
v -0.019762 0.002500 -0.038333
v -0.019918 0.002500 -0.037565
v -0.019971 0.002500 -0.036777
v 0.019918 0.002500 -0.037565
v 0.019971 0.002500 -0.036777
v 0.019762 0.002500 -0.038333
v 0.019507 0.002500 -0.039063
v 0.019158 0.002500 -0.039737
v 0.018724 0.002500 -0.040337
v 0.018217 0.002500 -0.040850
v 0.017647 0.002500 -0.041263
v 0.017030 0.002500 -0.041566
v 0.016381 0.002500 -0.041750
v 0.015715 0.002500 -0.041812
v 0.016381 0.002500 0.041750
v 0.015715 0.002500 0.041812
v 0.017030 0.002500 0.041566
v 0.017647 0.002500 0.041263
v 0.018217 0.002500 0.040850
v 0.018724 0.002500 0.040337
v 0.019158 0.002500 0.039737
v 0.019507 0.002500 0.039063
v 0.019762 0.002500 0.038333
v 0.019918 0.002500 0.037565
v 0.019971 0.002500 0.036777
v -0.007670 0.002500 -0.041272
v 0.007670 0.002500 -0.041272
v 0.007670 0.002500 -0.040501
v 0.006080 0.002500 -0.038911
v 0.007651 0.002500 -0.040252
v 0.007592 0.002500 -0.040010
v 0.007497 0.002500 -0.039779
v 0.007366 0.002500 -0.039566
v 0.007204 0.002500 -0.039377
v 0.007015 0.002500 -0.039214
v 0.006802 0.002500 -0.039084
v 0.006571 0.002500 -0.038989
v 0.006328 0.002500 -0.038930
v -0.007670 0.002500 -0.040501
v -0.006080 0.002500 -0.038911
v -0.007651 0.002500 -0.040252
v -0.007593 0.002500 -0.040010
v -0.007497 0.002500 -0.039779
v -0.007367 0.002500 -0.039566
v -0.007205 0.002500 -0.039377
v -0.007015 0.002500 -0.039214
v -0.006802 0.002500 -0.039084
v -0.006572 0.002500 -0.038989
v -0.006329 0.002500 -0.038930
v -0.015697 0.002211 0.040998
v -0.016309 0.002211 0.040941
v -0.016889 0.002211 0.040777
v -0.017439 0.002211 0.040509
v -0.017947 0.002211 0.040142
v -0.018400 0.002211 0.039687
v -0.018787 0.002211 0.039153
v -0.019099 0.002211 0.038555
v -0.019327 0.002211 0.037907
v -0.019466 0.002211 0.037225
v -0.019514 0.002211 0.036504
v -0.016309 0.002211 -0.041080
v -0.015697 0.002211 -0.041136
v -0.016889 0.002211 -0.040916
v -0.017439 0.002211 -0.040648
v -0.017947 0.002211 -0.040281
v -0.018400 0.002211 -0.039825
v -0.018787 0.002211 -0.039292
v -0.019099 0.002211 -0.038694
v -0.019327 0.002211 -0.038046
v -0.019466 0.002211 -0.037364
v -0.019514 0.002211 -0.036643
v 0.019466 0.002211 -0.037364
v 0.019514 0.002211 -0.036643
v 0.019327 0.002211 -0.038046
v 0.019099 0.002211 -0.038694
v 0.018787 0.002211 -0.039292
v 0.018400 0.002211 -0.039825
v 0.017947 0.002211 -0.040281
v 0.017439 0.002211 -0.040648
v 0.016889 0.002211 -0.040916
v 0.016309 0.002211 -0.041080
v 0.015697 0.002211 -0.041136
v 0.016309 0.002211 0.040941
v 0.015697 0.002211 0.040998
v 0.016889 0.002211 0.040777
v 0.017439 0.002211 0.040509
v 0.017947 0.002211 0.040142
v 0.018400 0.002211 0.039687
v 0.018787 0.002211 0.039153
v 0.019099 0.002211 0.038555
v 0.019327 0.002211 0.037907
v 0.019466 0.002211 0.037225
v 0.019514 0.002211 0.036504
v -0.007670 0.002211 -0.041136
v 0.007670 0.002211 -0.041136
v 0.007670 0.002211 -0.040370
v 0.007651 0.002211 -0.040122
v 0.007592 0.002211 -0.039881
v 0.007497 0.002211 -0.039651
v 0.007366 0.002211 -0.039439
v 0.007204 0.002211 -0.039251
v 0.007015 0.002211 -0.039089
v 0.006802 0.002211 -0.038960
v 0.006571 0.002211 -0.038865
v 0.006328 0.002211 -0.038807
v 0.006080 0.002211 -0.038787
v -0.006080 0.002211 -0.038787
v -0.006329 0.002211 -0.038807
v -0.006572 0.002211 -0.038865
v -0.006802 0.002211 -0.038960
v -0.007015 0.002211 -0.039089
v -0.007205 0.002211 -0.039251
v -0.007367 0.002211 -0.039439
v -0.007497 0.002211 -0.039651
v -0.007593 0.002211 -0.039881
v -0.007651 0.002211 -0.040122
v -0.007670 0.002211 -0.040370
vn -0.0000 -0.0000 1.0000
vn 1.0000 -0.0000 -0.0000
vn -1.0000 -0.0000 -0.0000
vn -0.0000 -0.0000 -1.0000
vn -0.0927 -0.0000 0.9957
vn -0.2732 -0.0000 0.9619
vn -0.4401 -0.0000 0.8980
vn -0.5870 -0.0000 0.8096
vn -0.7108 -0.0000 0.7034
vn -0.8108 -0.0000 0.5853
vn -0.8880 -0.0000 0.4599
vn -0.9438 -0.0000 0.3304
vn -0.9800 -0.0000 0.1989
vn -0.9978 -0.0000 0.0664
vn -0.0927 -0.0000 -0.9957
vn -0.2732 -0.0000 -0.9619
vn -0.4401 -0.0000 -0.8980
vn -0.5870 -0.0000 -0.8096
vn -0.7108 -0.0000 -0.7034
vn -0.8108 -0.0000 -0.5853
vn -0.8880 -0.0000 -0.4599
vn -0.9438 -0.0000 -0.3304
vn -0.9800 -0.0000 -0.1989
vn -0.9978 -0.0000 -0.0664
vn 0.9978 -0.0000 -0.0664
vn 0.9800 -0.0000 -0.1989
vn 0.9438 -0.0000 -0.3304
vn 0.8880 -0.0000 -0.4599
vn 0.8108 -0.0000 -0.5853
vn 0.7108 -0.0000 -0.7034
vn 0.5870 -0.0000 -0.8096
vn 0.4401 -0.0000 -0.8980
vn 0.2732 -0.0000 -0.9619
vn 0.0927 -0.0000 -0.9957
vn 0.0927 -0.0000 0.9957
vn 0.2732 -0.0000 0.9619
vn 0.4401 -0.0000 0.8980
vn 0.5870 -0.0000 0.8096
vn 0.7108 -0.0000 0.7034
vn 0.8108 -0.0000 0.5853
vn 0.8880 -0.0000 0.4599
vn 0.9438 -0.0000 0.3304
vn 0.9800 -0.0000 0.1989
vn 0.9978 -0.0000 0.0664
vn -0.0000 -1.0000 -0.0000
vn -0.0000 1.0000 -0.0000
vn 0.4894 0.3456 0.8007
vn 0.9974 0.0264 0.0665
vn 0.3549 0.3691 0.8590
vn -0.9974 0.0264 0.0665
vn 0.2150 0.3846 0.8977
vn -0.9767 0.0812 0.1987
vn 0.0720 0.3923 0.9170
vn -0.9346 0.1379 0.3280
vn -0.0000 0.3931 0.9195
vn -0.8705 0.1949 0.4520
vn -0.0720 0.3922 0.9170
vn -0.7843 0.2502 0.5676
vn -0.2150 0.3846 0.8977
vn -0.6768 0.3018 0.6715
vn -0.3549 0.3691 0.8590
vn -0.5496 0.3469 0.7600
vn 0.0673 0.6864 -0.7241
vn -0.4894 0.3456 0.8006
vn -0.4056 0.3833 0.8298
vn 0.2016 0.6731 -0.7115
vn -0.6158 0.3138 0.7228
vn -0.2488 0.4089 0.8780
vn 0.3352 0.6462 -0.6857
vn -0.7306 0.2735 0.6256
vn -0.0838 0.4221 0.9027
vn 0.4667 0.6047 -0.6454
vn -0.8303 0.2247 0.5100
vn -0.0673 0.6864 -0.7241
vn 0.5939 0.5479 -0.5892
vn -0.9104 0.1680 0.3780
vn -0.2016 0.6731 -0.7115
vn 0.7128 0.4752 -0.5158
vn -0.9669 0.1044 0.2327
vn -0.3352 0.6462 -0.6857
vn 0.8182 0.3873 -0.4249
vn -0.9963 0.0356 0.0786
vn -0.4667 0.6047 -0.6454
vn 0.9042 0.2859 -0.3174
vn -0.5939 0.5479 -0.5892
vn 0.9649 0.1746 -0.1963
vn -0.7128 0.4752 -0.5158
vn 0.9961 0.0583 -0.0664
vn -0.0000 0.4239 0.9057
vn -0.8182 0.3873 -0.4249
vn 0.0838 0.4221 0.9027
vn -0.9042 0.2859 -0.3174
vn 0.2488 0.4089 0.8780
vn 1.0000 0.0001 0.0002
vn -0.9649 0.1746 -0.1963
vn 0.4056 0.3833 0.8298
vn 0.9963 0.0357 0.0788
vn -0.9961 0.0583 -0.0664
vn 0.5496 0.3469 0.7600
vn 0.9669 0.1045 0.2329
vn 0.6768 0.3018 0.6715
vn 0.9103 0.1681 0.3782
vn -0.0000 0.6882 -0.7255
vn 0.7843 0.2502 0.5676
vn 0.8302 0.2248 0.5102
vn 0.8705 0.1949 0.4520
vn 0.7306 0.2735 0.6257
vn 0.9346 0.1379 0.3280
vn 0.6157 0.3138 0.7228
vn 0.9767 0.0812 0.1987
vt 0.375000 0.776635
vt 0.625000 0.776635
vt 0.625000 0.973365
vt 0.375000 0.973365
vt 0.375000 0.515051
vt 0.625000 0.515051
vt 0.625000 0.734949
vt 0.375000 0.734949
vt 0.375000 0.015051
vt 0.625000 0.015051
vt 0.625000 0.234949
vt 0.375000 0.234949
vt 0.375000 0.276635
vt 0.625000 0.276635
vt 0.625000 0.473365
vt 0.375000 0.473365
vt 0.625000 0.977531
vt 0.375000 0.977531
vt 0.625000 0.981595
vt 0.375000 0.981595
vt 0.625000 0.985457
vt 0.375000 0.985457
vt 0.625000 0.989020
vt 0.375000 0.989020
vt 0.625000 1.000000
vt 0.375000 1.000000
vt 0.375000 0.000000
vt 0.625000 0.000000
vt 0.625000 0.006204
vt 0.375000 0.006204
vt 0.625000 0.008218
vt 0.375000 0.008218
vt 0.625000 0.010400
vt 0.375000 0.010400
vt 0.625000 0.012697
vt 0.375000 0.012697
vt 0.375000 0.272469
vt 0.625000 0.272469
vt 0.375000 0.268405
vt 0.625000 0.268405
vt 0.375000 0.264543
vt 0.625000 0.264543
vt 0.375000 0.260980
vt 0.625000 0.260980
vt 0.375000 0.250000
vt 0.625000 0.250000
vt 0.375000 0.243796
vt 0.625000 0.243796
vt 0.375000 0.241782
vt 0.625000 0.241782
vt 0.375000 0.239600
vt 0.625000 0.239600
vt 0.375000 0.237303
vt 0.625000 0.237303
vt 0.375000 0.512697
vt 0.625000 0.512697
vt 0.375000 0.510400
vt 0.625000 0.510400
vt 0.375000 0.508218
vt 0.625000 0.508218
vt 0.375000 0.506204
vt 0.625000 0.506204
vt 0.375000 0.500000
vt 0.625000 0.500000
vt 0.375000 0.489020
vt 0.625000 0.489020
vt 0.375000 0.485457
vt 0.625000 0.485457
vt 0.375000 0.481595
vt 0.625000 0.481595
vt 0.375000 0.477531
vt 0.625000 0.477531
vt 0.375000 0.772469
vt 0.625000 0.772469
vt 0.375000 0.768405
vt 0.625000 0.768405
vt 0.375000 0.764543
vt 0.625000 0.764543
vt 0.375000 0.760980
vt 0.625000 0.760980
vt 0.375000 0.750000
vt 0.625000 0.750000
vt 0.375000 0.743796
vt 0.625000 0.743796
vt 0.375000 0.741782
vt 0.625000 0.741782
vt 0.375000 0.739600
vt 0.625000 0.739600
vt 0.375000 0.737303
vt 0.625000 0.737303
vt 0.125000 0.515051
vt 0.125328 0.512697
vt 0.126304 0.510400
vt 0.127903 0.508218
vt 0.130087 0.506204
vt 0.132801 0.504408
vt 0.135980 0.502874
vt 0.139543 0.501640
vt 0.143405 0.500737
vt 0.147469 0.500185
vt 0.151635 0.500000
vt 0.348365 0.500000
vt 0.352531 0.500185
vt 0.356595 0.500737
vt 0.360457 0.501640
vt 0.364020 0.502874
vt 0.367199 0.504408
vt 0.369913 0.506204
vt 0.372097 0.508218
vt 0.373696 0.510400
vt 0.374672 0.512697
vt 0.374672 0.737303
vt 0.373696 0.739600
vt 0.372097 0.741782
vt 0.369913 0.743796
vt 0.367199 0.745592
vt 0.364020 0.747125
vt 0.360457 0.748360
vt 0.356595 0.749263
vt 0.352531 0.749815
vt 0.348365 0.750000
vt 0.151635 0.750000
vt 0.147469 0.749815
vt 0.143405 0.749263
vt 0.139543 0.748360
vt 0.135980 0.747126
vt 0.132801 0.745592
vt 0.130087 0.743796
vt 0.127903 0.741782
vt 0.126304 0.739600
vt 0.125328 0.737303
vt 0.125000 0.734949
vt 0.848252 0.748385
vt 0.852083 0.748215
vt 0.852531 0.749815
vt 0.848365 0.750000
vt 0.855709 0.747723
vt 0.856595 0.749263
vt 0.859155 0.746916
vt 0.860457 0.748360
vt 0.862336 0.745815
vt 0.864020 0.747125
vt 0.865171 0.744446
vt 0.867199 0.745592
vt 0.867594 0.742844
vt 0.869913 0.743796
vt 0.869543 0.741047
vt 0.872097 0.741782
vt 0.870970 0.739099
vt 0.873696 0.739600
vt 0.871841 0.737050
vt 0.874672 0.737303
vt 0.872142 0.734885
vt 0.875000 0.734949
vt 0.852083 0.501785
vt 0.848252 0.501615
vt 0.848365 0.500000
vt 0.852531 0.500185
vt 0.855710 0.502277
vt 0.856595 0.500737
vt 0.859155 0.503084
vt 0.860457 0.501640
vt 0.862336 0.504185
vt 0.864020 0.502874
vt 0.865172 0.505554
vt 0.867199 0.504408
vt 0.867594 0.507157
vt 0.869913 0.506204
vt 0.869543 0.508953
vt 0.872097 0.508218
vt 0.870970 0.510901
vt 0.873696 0.510400
vt 0.871841 0.512950
vt 0.874672 0.512697
vt 0.872142 0.515114
vt 0.875000 0.515051
vt 0.628159 0.512950
vt 0.627857 0.515114
vt 0.625000 0.515051
vt 0.625328 0.512697
vt 0.629030 0.510901
vt 0.626304 0.510400
vt 0.630457 0.508954
vt 0.627903 0.508218
vt 0.632406 0.507157
vt 0.630087 0.506204
vt 0.634828 0.505553
vt 0.632801 0.504408
vt 0.637664 0.504185
vt 0.635979 0.502874
vt 0.640844 0.503084
vt 0.639543 0.501640
vt 0.644290 0.502277
vt 0.643405 0.500737
vt 0.647917 0.501785
vt 0.647469 0.500185
vt 0.651748 0.501615
vt 0.651635 0.500000
vt 0.647917 0.748215
vt 0.651748 0.748385
vt 0.651635 0.750000
vt 0.647469 0.749815
vt 0.644291 0.747723
vt 0.643405 0.749263
vt 0.640845 0.746916
vt 0.639543 0.748360
vt 0.637664 0.745815
vt 0.635980 0.747126
vt 0.634828 0.744446
vt 0.632801 0.745592
vt 0.632406 0.742844
vt 0.630087 0.743796
vt 0.630457 0.741047
vt 0.627903 0.741782
vt 0.629030 0.739099
vt 0.626304 0.739600
vt 0.628159 0.737050
vt 0.625328 0.737303
vt 0.627858 0.734885
vt 0.625000 0.734949
vt 0.781474 0.501615
vt 0.712353 0.501615
vt 0.781474 0.502909
vt 0.781385 0.503327
vt 0.781123 0.503735
vt 0.780693 0.504122
vt 0.780105 0.504479
vt 0.779375 0.504798
vt 0.778520 0.505071
vt 0.777561 0.505290
vt 0.776522 0.505450
vt 0.775429 0.505548
vt 0.774308 0.505581
vt 0.719519 0.505581
vt 0.718398 0.505548
vt 0.717305 0.505450
vt 0.716266 0.505290
vt 0.715307 0.505071
vt 0.714452 0.504798
vt 0.713722 0.504479
vt 0.713134 0.504122
vt 0.712704 0.503735
vt 0.712442 0.503327
vt 0.712353 0.502909
vt 0.712483 0.503300
vt 0.712860 0.503625
vt 0.713450 0.503883
vt 0.714181 0.504105
vt 0.714948 0.504361
vt 0.715700 0.504695
vt 0.716500 0.505046
vt 0.717406 0.505335
vt 0.718422 0.505518
vt 0.775394 0.505519
vt 0.776375 0.505335
vt 0.777225 0.505046
vt 0.777962 0.504695
vt 0.778678 0.504361
vt 0.779466 0.504105
vt 0.780257 0.503883
vt 0.780909 0.503625
vt 0.781329 0.503300
s 0
f 46/1/1 123/2/1 89/3/1 1/4/1
f 68/5/2 112/6/2 132/7/2 45/8/2
f 2/9/3 99/10/3 110/11/3 23/12/3
f 24/13/4 101/14/4 121/15/4 67/16/4
f 1/4/5 89/3/5 90/17/5 3/18/5
f 3/18/6 90/17/6 91/19/6 4/20/6
f 4/20/7 91/19/7 92/21/7 5/22/7
f 5/22/8 92/21/8 93/23/8 6/24/8
f 6/24/9 93/23/9 94/25/9 7/26/9
f 7/27/10 94/28/10 95/29/10 8/30/10
f 8/30/11 95/29/11 96/31/11 9/32/11
f 9/32/12 96/31/12 97/33/12 10/34/12
f 10/34/13 97/33/13 98/35/13 11/36/13
f 11/36/14 98/35/14 99/10/14 2/9/14
f 101/14/15 24/13/15 33/37/15 100/38/15
f 100/38/16 33/37/16 32/39/16 102/40/16
f 102/40/17 32/39/17 31/41/17 103/42/17
f 103/42/18 31/41/18 30/43/18 104/44/18
f 104/44/19 30/43/19 29/45/19 105/46/19
f 105/46/20 29/45/20 28/47/20 106/48/20
f 106/48/21 28/47/21 27/49/21 107/50/21
f 107/50/22 27/49/22 26/51/22 108/52/22
f 108/52/23 26/51/23 25/53/23 109/54/23
f 109/54/24 25/53/24 23/12/24 110/11/24
f 112/6/25 68/5/25 77/55/25 111/56/25
f 111/56/26 77/55/26 76/57/26 113/58/26
f 113/58/27 76/57/27 75/59/27 114/60/27
f 114/60/28 75/59/28 74/61/28 115/62/28
f 115/62/29 74/61/29 73/63/29 116/64/29
f 116/64/30 73/63/30 72/65/30 117/66/30
f 117/66/31 72/65/31 71/67/31 118/68/31
f 118/68/32 71/67/32 70/69/32 119/70/32
f 119/70/33 70/69/33 69/71/33 120/72/33
f 120/72/34 69/71/34 67/16/34 121/15/34
f 123/2/35 46/1/35 55/73/35 122/74/35
f 122/74/36 55/73/36 54/75/36 124/76/36
f 124/76/37 54/75/37 53/77/37 125/78/37
f 125/78/38 53/77/38 52/79/38 126/80/38
f 126/80/39 52/79/39 51/81/39 127/82/39
f 127/82/40 51/81/40 50/83/40 128/84/40
f 128/84/41 50/83/41 49/85/41 129/86/41
f 129/86/42 49/85/42 48/87/42 130/88/42
f 130/88/43 48/87/43 47/89/43 131/90/43
f 131/90/44 47/89/44 45/8/44 132/7/44
f 23/91/45 25/92/45 26/93/45 27/94/45 28/95/45 29/96/45 30/97/45 31/98/45 32/99/45 33/100/45 24/101/45 67/102/45 69/103/45 70/104/45 71/105/45 72/106/45 73/107/45 74/108/45 75/109/45 76/110/45 77/111/45 68/5/45 45/8/45 47/112/45 48/113/45 49/114/45 50/115/45 51/116/45 52/117/45 53/118/45 54/119/45 55/120/45 46/121/45 1/122/45 3/123/45 4/124/45 5/125/45 6/126/45 7/127/45 8/128/45 9/129/45 10/130/45 11/131/45 2/132/45
f 13/133/46 22/134/46 90/135/46 89/136/46
f 22/134/46 21/137/46 91/138/46 90/135/46
f 21/137/46 20/139/46 92/140/46 91/138/46
f 20/139/46 19/141/46 93/142/46 92/140/46
f 19/141/46 18/143/46 94/144/46 93/142/46
f 18/143/46 17/145/46 95/146/46 94/144/46
f 17/145/46 16/147/46 96/148/46 95/146/46
f 16/147/46 15/149/46 97/150/46 96/148/46
f 15/149/46 14/151/46 98/152/46 97/150/46
f 14/151/46 12/153/46 99/154/46 98/152/46
f 36/155/46 34/156/46 101/157/46 100/158/46
f 37/159/46 36/155/46 100/158/46 102/160/46
f 38/161/46 37/159/46 102/160/46 103/162/46
f 39/163/46 38/161/46 103/162/46 104/164/46
f 40/165/46 39/163/46 104/164/46 105/166/46
f 41/167/46 40/165/46 105/166/46 106/168/46
f 42/169/46 41/167/46 106/168/46 107/170/46
f 43/171/46 42/169/46 107/170/46 108/172/46
f 44/173/46 43/171/46 108/172/46 109/174/46
f 35/175/46 44/173/46 109/174/46 110/176/46
f 80/177/46 78/178/46 112/179/46 111/180/46
f 81/181/46 80/177/46 111/180/46 113/182/46
f 82/183/46 81/181/46 113/182/46 114/184/46
f 83/185/46 82/183/46 114/184/46 115/186/46
f 84/187/46 83/185/46 115/186/46 116/188/46
f 85/189/46 84/187/46 116/188/46 117/190/46
f 86/191/46 85/189/46 117/190/46 118/192/46
f 87/193/46 86/191/46 118/192/46 119/194/46
f 88/195/46 87/193/46 119/194/46 120/196/46
f 79/197/46 88/195/46 120/196/46 121/198/46
f 58/199/46 56/200/46 123/201/46 122/202/46
f 59/203/46 58/199/46 122/202/46 124/204/46
f 60/205/46 59/203/46 124/204/46 125/206/46
f 61/207/46 60/205/46 125/206/46 126/208/46
f 62/209/46 61/207/46 126/208/46 127/210/46
f 63/211/46 62/209/46 127/210/46 128/212/46
f 64/213/46 63/211/46 128/212/46 129/214/46
f 65/215/46 64/213/46 129/214/46 130/216/46
f 66/217/46 65/215/46 130/216/46 131/218/46
f 57/219/46 66/217/46 131/218/46 132/220/46
f 12/153/46 35/175/46 110/176/46 99/154/46
f 56/200/46 13/133/46 89/136/46 123/201/46
f 78/178/46 57/219/46 132/220/46 112/179/46
f 34/156/46 133/221/46 134/222/46 79/197/46 121/198/46 101/157/46
f 133/221/46 146/223/46 148/224/46 149/225/46 150/226/46 151/227/46 152/228/46 153/229/46 154/230/46 155/231/46 156/232/46 147/233/46 136/234/46 145/235/46 144/236/46 143/237/46 142/238/46 141/239/46 140/240/46 139/241/46 138/242/46 137/243/46 135/244/46 134/222/46
f 142/238/47 143/237/47 210/237/47 209/238/47
f 157/133/46 191/200/46 190/199/46 192/203/46 193/205/46 194/207/46 195/209/46 196/211/46 197/213/46 198/215/46 199/217/46 200/219/46 180/178/46 179/177/46 181/181/46 182/183/46 183/185/46 184/187/46 185/189/46 186/191/46 187/193/46 188/195/46 189/197/46 202/222/46 203/244/46 204/245/46 205/246/46 206/247/46 207/248/46 208/249/46 209/250/46 210/251/46 211/252/46 212/253/46 213/234/46 214/233/46 215/254/46 216/255/46 217/256/46 218/257/46 219/258/46 220/259/46 221/260/46 222/261/46 223/262/46 224/223/46 201/221/46 169/156/46 168/155/46 170/159/46 171/161/46 172/163/46 173/165/46 174/167/46 175/169/46 176/171/46 177/173/46 178/175/46 167/153/46 166/151/46 165/149/46 164/147/46 163/145/46 162/143/46 161/141/46 160/139/46 159/137/46 158/134/46
f 44/173/48 35/175/48 178/175/48 177/173/48
f 143/237/49 144/236/49 211/236/49 210/237/49
f 78/178/50 80/177/50 179/177/50 180/178/50
f 144/236/51 145/235/51 212/235/51 211/236/51
f 80/177/52 81/181/52 181/181/52 179/177/52
f 145/235/53 136/234/53 213/234/53 212/235/53
f 81/181/54 82/183/54 182/183/54 181/181/54
f 136/234/55 147/233/55 214/233/55 213/234/55
f 82/183/56 83/185/56 183/185/56 182/183/56
f 147/233/57 156/232/57 215/232/57 214/233/57
f 83/185/58 84/187/58 184/187/58 183/185/58
f 156/232/59 155/231/59 216/231/59 215/232/59
f 84/187/60 85/189/60 185/189/60 184/187/60
f 155/231/61 154/230/61 217/230/61 216/231/61
f 85/189/62 86/191/62 186/191/62 185/189/62
f 22/134/63 13/133/63 157/133/63 158/134/63
f 154/230/64 153/229/64 218/229/64 217/230/64
f 86/191/65 87/193/65 187/193/65 186/191/65
f 21/137/66 22/134/66 158/134/66 159/137/66
f 153/229/67 152/228/67 219/228/67 218/229/67
f 87/193/68 88/195/68 188/195/68 187/193/68
f 20/139/69 21/137/69 159/137/69 160/139/69
f 152/228/70 151/227/70 220/227/70 219/228/70
f 88/195/71 79/197/71 189/197/71 188/195/71
f 19/141/72 20/139/72 160/139/72 161/141/72
f 151/227/73 150/226/73 221/226/73 220/227/73
f 56/200/74 58/199/74 190/199/74 191/200/74
f 18/143/75 19/141/75 161/141/75 162/143/75
f 150/226/76 149/225/76 222/225/76 221/226/76
f 58/199/77 59/203/77 192/203/77 190/199/77
f 17/145/78 18/143/78 162/143/78 163/145/78
f 149/225/79 148/224/79 223/224/79 222/225/79
f 59/203/80 60/205/80 193/205/80 192/203/80
f 16/147/81 17/145/81 163/145/81 164/147/81
f 148/224/82 146/223/82 224/223/82 223/224/82
f 60/205/83 61/207/83 194/207/83 193/205/83
f 15/149/84 16/147/84 164/147/84 165/149/84
f 146/223/3 133/221/3 201/221/3 224/223/3
f 61/207/85 62/209/85 195/209/85 194/207/85
f 14/151/86 15/149/86 165/149/86 166/151/86
f 62/209/87 63/211/87 196/211/87 195/209/87
f 12/153/88 14/151/88 166/151/88 167/153/88
f 79/197/89 134/222/89 202/222/89 189/197/89
f 63/211/90 64/213/90 197/213/90 196/211/90
f 34/156/91 36/155/91 168/155/91 169/156/91
f 64/213/92 65/215/92 198/215/92 197/213/92
f 36/155/93 37/159/93 170/159/93 168/155/93
f 134/222/94 135/244/94 203/244/94 202/222/94
f 65/215/95 66/217/95 199/217/95 198/215/95
f 37/159/96 38/161/96 171/161/96 170/159/96
f 135/244/97 137/243/97 204/243/97 203/244/97
f 66/217/98 57/219/98 200/219/98 199/217/98
f 38/161/99 39/163/99 172/163/99 171/161/99
f 137/243/100 138/242/100 205/242/100 204/243/100
f 35/175/2 12/153/2 167/153/2 178/175/2
f 39/163/101 40/165/101 173/165/101 172/163/101
f 138/242/102 139/241/102 206/241/102 205/242/102
f 13/133/103 56/200/103 191/200/103 157/133/103
f 40/165/104 41/167/104 174/167/104 173/165/104
f 139/241/105 140/240/105 207/240/105 206/241/105
f 57/219/3 78/178/3 180/178/3 200/219/3
f 41/167/106 42/169/106 175/169/106 174/167/106
f 140/240/107 141/239/107 208/239/107 207/240/107
f 133/221/89 34/156/89 169/156/89 201/221/89
f 42/169/108 43/171/108 176/171/108 175/169/108
f 141/239/109 142/238/109 209/238/109 208/239/109
f 43/171/110 44/173/110 177/173/110 176/171/110
